
<svg viewBox="0 0 24 24" width="24" height="24" xmlns="http://www.w3.org/2000/svg" xmlns:xlink="http://www.w3.org/1999/xlink">
  <path d="M 17.1 5.5 C 17.1 6.384 16.384 7.1 15.5 7.1 C 14.908 7.1 14.391 6.7780000000000005 14.114 6.3 L 3.268 6.3 C 2.854 6.3 2.518 5.964 2.518 5.55 L 2.518 5.5 C 2.518 5.058 2.8760000000000003 4.7 3.318 4.7 L 14.114 4.7 C 14.391 4.222 14.908 3.9 15.5 3.9 C 16.384 3.9 17.1 4.616 17.1 5.5 Z M 9.1 12 C 9.1 12.884 8.384 13.6 7.5 13.6 C 6.908 13.6 6.391 13.278 6.114 12.8 L 3.25 12.8 C 2.8360000000000003 12.8 2.5 12.464 2.5 12.05 L 2.5 12 C 2.5 11.558 2.858 11.2 3.3 11.2 L 6.114 11.2 C 6.391 10.722 6.908 10.4 7.5 10.4 C 8.384 10.4 9.1 11.116 9.1 12 Z M 13.6 18.5 C 13.6 19.384 12.884 20.1 12 20.1 C 11.408 20.1 10.891 19.778 10.614 19.3 L 3.25 19.3 C 2.8360000000000003 19.3 2.5 18.964 2.5 18.55 L 2.5 18.5 C 2.5 18.058 2.858 17.7 3.3 17.7 L 10.614 17.7 C 10.891 17.222 11.408 16.9 12 16.9 C 12.884 16.9 13.6 17.616 13.6 18.5 Z M 18.8 4.7 L 20.7 4.7 C 21.142 4.7 21.5 5.058 21.5 5.5 C 21.5 5.942 21.142 6.3 20.7 6.3 L 18.8 6.3 C 18.358 6.3 18 5.942 18 5.5 C 18 5.058 18.358 4.7 18.8 4.7 Z M 10.8 11.2 L 20.7 11.2 C 21.142 11.2 21.5 11.558 21.5 12 C 21.5 12.442 21.142 12.8 20.7 12.8 L 10.8 12.8 C 10.358 12.8 10 12.442 10 12 C 10 11.558 10.358 11.2 10.8 11.2 Z M 15.316 17.7 L 20.7 17.7 C 21.142 17.7 21.5 18.058 21.5 18.5 C 21.5 18.942 21.142 19.3 20.7 19.3 L 15.316 19.3 C 14.874 19.3 14.516 18.942 14.516 18.5 C 14.516 18.058 14.874 17.7 15.316 17.7 Z" style="stroke: rgb(0, 0, 0); stroke-width: 0px;" transform="matrix(1, 0, 0, 1, 3.552713678800501e-15, 0)"></path>
</svg>